<?xml version="1.0" standalone="no"?>
<!DOCTYPE svg PUBLIC "-//W3C//DTD SVG 20010904//EN"
 "http://www.w3.org/TR/2001/REC-SVG-20010904/DTD/svg10.dtd">
<svg version="1.0" xmlns="http://www.w3.org/2000/svg"
 width="260.000000pt" height="260.000000pt" viewBox="0 0 260.000000 260.000000"
 preserveAspectRatio="xMidYMid meet">
<metadata>
Created by potrace 1.14, written by Peter Selinger 2001-2017
</metadata>
<g transform="translate(0.000000,260.000000) scale(0.100000,-0.100000)"
fill="#000000" stroke="none">
<path d="M557 1789 c-21 -5 -63 -21 -94 -35 -64 -31 -87 -69 -98 -169 -20
-176 3 -559 42 -694 26 -90 60 -108 138 -72 49 23 91 64 141 138 22 32 42 60
45 63 3 3 31 50 62 105 31 55 57 97 57 95 1 -3 2 -41 5 -85 5 -108 13 -149 40
-209 70 -158 244 -169 381 -25 157 165 233 384 228 656 -2 115 -15 165 -46
171 -22 4 -93 -61 -125 -116 -25 -42 -26 -50 -25 -190 0 -225 -43 -395 -110
-432 -26 -14 -29 -13 -49 7 -70 69 -56 335 33 650 30 109 31 113 13 133 -22
24 -71 26 -142 5 -92 -27 -83 -15 -273 -410 -51 -105 -151 -275 -163 -275 -6
0 8 345 18 430 3 25 12 89 21 144 20 129 10 141 -99 115z"/>
<path d="M1792 1739 c-25 -26 -91 -188 -120 -296 -18 -64 -19 -73 -5 -93 13
-18 22 -21 57 -16 138 19 162 19 190 1 41 -27 57 -68 55 -134 -4 -104 -89
-252 -166 -289 -33 -16 -36 -16 -49 3 -40 54 8 263 77 341 15 16 16 23 7 32
-18 18 -58 14 -115 -12 -101 -47 -154 -128 -160 -246 -4 -64 -1 -82 19 -120
33 -64 92 -102 164 -106 99 -4 184 41 302 164 84 87 134 170 158 262 30 116 4
194 -80 235 -42 21 -60 24 -125 21 -42 -2 -95 -11 -118 -19 -24 -9 -43 -14
-43 -12 0 3 12 29 26 58 l26 53 54 -4 c66 -5 129 22 190 85 46 46 62 79 46 95
-6 6 -87 13 -190 16 -177 4 -179 4 -200 -19z"/>
</g>
</svg>
